<?xml version="1.0" encoding="iso-8859-1"?>
<!-- Uploaded to: SVG Repo, www.svgrepo.com, Generator: SVG Repo Mixer Tools -->
<!DOCTYPE svg PUBLIC "-//W3C//DTD SVG 1.1//EN" "http://www.w3.org/Graphics/SVG/1.1/DTD/svg11.dtd">
<svg version="1.1" id="Capa_1" xmlns="http://www.w3.org/2000/svg" xmlns:xlink="http://www.w3.org/1999/xlink" 
	 viewBox="0 0 337.919 337.919" xml:space="preserve">
<g>
	<g>
		<path style="fill:#CE593F;" d="M65.894,151.565c0.197,0.077,0.39,0.162,0.58,0.251C66.283,151.727,66.092,151.642,65.894,151.565z
			"/>
		<path style="fill:#CE593F;" d="M55.367,167c0.176,0.191,0.355,0.374,0.546,0.551C55.723,167.374,55.542,167.19,55.367,167z"/>
		<path style="fill:#CE593F;" d="M64.212,151.074c0.186,0.035,0.363,0.092,0.544,0.138
			C64.574,151.166,64.398,151.109,64.212,151.074z"/>
		<path style="fill:#CE593F;" d="M67.459,152.352c0.174,0.107,0.35,0.211,0.517,0.329C67.808,152.562,67.633,152.46,67.459,152.352z
			"/>
		<path style="fill:#CE593F;" d="M71.171,156.552c0.091,0.201,0.166,0.41,0.244,0.617C71.337,156.96,71.263,156.753,71.171,156.552z
			"/>
		<path style="fill:#CE593F;" d="M70.341,155.063c0.096,0.139,0.171,0.294,0.26,0.438C70.511,155.357,70.437,155.203,70.341,155.063
			z"/>
		<path style="fill:#CE593F;" d="M69.279,153.777c-0.107-0.108-0.229-0.197-0.341-0.301
			C69.05,153.579,69.173,153.669,69.279,153.777z"/>
		<path style="fill:#CE593F;" d="M58.867,169.435c-0.246-0.098-0.476-0.227-0.711-0.344
			C58.391,169.209,58.62,169.336,58.867,169.435z"/>
		<path style="fill:#CE593F;" d="M60.575,169.949c-0.234-0.046-0.453-0.131-0.681-0.194
			C60.123,169.817,60.341,169.902,60.575,169.949z"/>
		<path style="fill:#CE593F;" d="M71.585,157.715c-0.575-0.107-1.164-0.172-1.77-0.172c-5.306,0-9.621,4.316-9.621,9.62
			c0,0.97,0.147,1.906,0.416,2.789c0.59,0.113,1.195,0.184,1.817,0.184c5.306,0,9.621-4.317,9.621-9.622
			C72.048,159.534,71.858,158.606,71.585,157.715z"/>
		<path style="fill:#CE593F;" d="M53.151,162.93c-0.051-0.196-0.121-0.384-0.16-0.584C53.03,162.547,53.099,162.734,53.151,162.93z"
			/>
		<path style="fill:#CE593F;" d="M57.301,168.626c-0.223-0.142-0.433-0.302-0.643-0.461
			C56.869,168.325,57.077,168.484,57.301,168.626z"/>
		<path style="fill:#CE593F;" d="M54.736,166.235c-0.149-0.2-0.297-0.402-0.43-0.613C54.44,165.834,54.586,166.034,54.736,166.235z"
			/>
		<path style="fill:#CE593F;" d="M53.805,164.7c-0.103-0.212-0.215-0.42-0.303-0.641C53.59,164.281,53.701,164.487,53.805,164.7z"/>
	</g>
	<g>
		<path style="fill:#FDD44B;" d="M169.588,31.56c0.066,0.219,0.13,0.455,0.195,0.681C169.718,32.014,169.655,31.78,169.588,31.56z"
			/>
		<path style="fill:#FDD44B;" d="M170.192,33.706c0.076,0.288,0.148,0.585,0.221,0.879
			C170.339,34.291,170.267,33.994,170.192,33.706z"/>
		<path style="fill:#FDD44B;" d="M170.754,36.007c0.074,0.324,0.145,0.654,0.216,0.984
			C170.899,36.659,170.828,36.332,170.754,36.007z"/>
		<path style="fill:#FDD44B;" d="M167.223,55.727c-0.097-0.048-0.188-0.1-0.273-0.155C167.034,55.628,167.125,55.678,167.223,55.727
			z"/>
		<path style="fill:#FDD44B;" d="M171.124,37.751c-1.593,4.986-3.007,11.991-3.115,18.235c0.279,0.055,0.58,0.098,0.951,0.098
			c1.712,0,2.344-0.656,2.836-1.306c0.2-0.449,0.656-1.834,0.656-5.077C172.451,45.83,171.91,41.627,171.124,37.751z"/>
		<path style="fill:#FDD44B;" d="M167.964,55.982c-0.13-0.027-0.236-0.068-0.35-0.105C167.727,55.913,167.833,55.954,167.964,55.982
			z"/>
		<path style="fill:#FDD44B;" d="M166.479,55.192c0.052,0.054,0.115,0.102,0.173,0.154
			C166.594,55.295,166.531,55.245,166.479,55.192z"/>
	</g>
	<rect x="170.765" y="94.972" style="fill:#EF8829;" width="5" height="76"/>
	<g>
		<path style="fill:#EF8829;" d="M58.917,218.047c0.696,0.489,1.388,0.992,2.077,1.506
			C60.306,219.039,59.612,218.536,58.917,218.047z"/>
		<path style="fill:#EF8829;" d="M56.11,216.203c0.697,0.429,1.383,0.871,2.059,1.331C57.495,217.074,56.806,216.632,56.11,216.203z
			"/>
		<path style="fill:#EF8829;" d="M52.986,214.464c0.812,0.406,1.605,0.831,2.375,1.284C54.592,215.296,53.798,214.87,52.986,214.464
			z"/>
		<path style="fill:#EF8829;" d="M61.602,220.004c0.86,0.651,1.721,1.315,2.596,1.993C63.323,221.32,62.461,220.656,61.602,220.004z
			"/>
		<path style="fill:#EF8829;" d="M45.967,211.849c0.338,0.085,0.658,0.184,0.987,0.276
			C46.626,212.032,46.304,211.933,45.967,211.849z"/>
		<path style="fill:#EF8829;" d="M235.724,244.221c-19.266,0-29.215-7.715-37.992-14.522c-7.865-6.1-14.659-11.367-28.777-11.367
			c-14.116,0-20.908,5.267-28.773,11.366c-8.778,6.807-18.726,14.523-37.992,14.523c-19.266,0-29.608-7.716-38.385-14.523
			c-3.812-2.957-7.039-5.709-12.039-7.769v67.042h248v-70.059c-9,1.524-19.963,5.883-26.285,10.786
			C264.703,236.506,254.991,244.221,235.724,244.221z"/>
		<path style="fill:#EF8829;" d="M48.742,212.679c0.372,0.127,0.738,0.259,1.098,0.396
			C49.481,212.938,49.113,212.806,48.742,212.679z"/>
		<path style="fill:#EF8829;" d="M51.335,213.692c0.355,0.156,0.718,0.305,1.063,0.47C52.053,213.997,51.691,213.847,51.335,213.692
			z"/>
	</g>
	<g>
		<path style="fill:#CE593F;" d="M165.002,193.972H51.765v4.231c0-0.008,0.557-0.013,0.534-0.021
			c8.752,2.834,15.184,7.562,20.816,11.93c7.864,6.099,14.807,11.367,28.924,11.367c14.117,0,20.985-5.268,28.85-11.367
			c8.777-6.807,18.763-14.521,38.028-14.521c19.267,0,29.235,7.715,38.012,14.522c7.865,6.099,14.668,11.367,28.785,11.367
			c14.118,0,20.312-5.268,28.178-11.367c7.553-5.858,16.873-12.374,29.873-14.082v-2.057H192.972H165.002z"/>
		<path style="fill:#CE593F;" d="M42.947,196.03c1.744,0.206,3.391,0.488,4.969,0.824C46.339,196.517,44.691,196.235,42.947,196.03z
			"/>
		<path style="fill:#CE593F;" d="M52.408,198.035c-1.35-0.422-2.753-0.807-4.234-1.131
			C49.657,197.227,51.058,197.613,52.408,198.035z"/>
	</g>
	<polygon style="fill:#84BD93;" points="45.769,307.972 24.765,307.972 24.765,313.972 323.765,313.972 323.765,307.972 
		312.837,307.972 	"/>
	<g>
		<path style="fill:#CE593F;" d="M129.447,151.565c0.197,0.077,0.389,0.162,0.58,0.251
			C129.836,151.727,129.645,151.642,129.447,151.565z"/>
		<path style="fill:#CE593F;" d="M127.765,151.074c0.186,0.035,0.363,0.092,0.545,0.138
			C128.127,151.166,127.951,151.109,127.765,151.074z"/>
		<path style="fill:#CE593F;" d="M131.012,152.352c0.174,0.108,0.35,0.211,0.516,0.329
			C131.362,152.562,131.187,152.46,131.012,152.352z"/>
		<path style="fill:#CE593F;" d="M134.724,156.55c0.092,0.202,0.167,0.412,0.245,0.62
			C134.89,156.961,134.816,156.753,134.724,156.55z"/>
		<path style="fill:#CE593F;" d="M118.92,166.999c0.176,0.191,0.355,0.375,0.546,0.551
			C119.276,167.374,119.095,167.19,118.92,166.999z"/>
		<path style="fill:#CE593F;" d="M133.894,155.063c0.097,0.141,0.172,0.297,0.262,0.442
			C134.066,155.358,133.991,155.204,133.894,155.063z"/>
		<path style="fill:#CE593F;" d="M132.832,153.777c-0.106-0.108-0.229-0.197-0.34-0.3
			C132.604,153.58,132.726,153.669,132.832,153.777z"/>
		<path style="fill:#CE593F;" d="M122.42,169.435c-0.247-0.099-0.477-0.227-0.713-0.345
			C121.944,169.208,122.172,169.336,122.42,169.435z"/>
		<path style="fill:#CE593F;" d="M124.129,169.949c-0.235-0.046-0.453-0.131-0.681-0.194
			C123.676,169.817,123.894,169.902,124.129,169.949z"/>
		<path style="fill:#CE593F;" d="M120.855,168.626c-0.224-0.142-0.433-0.302-0.644-0.461
			C120.422,168.325,120.63,168.484,120.855,168.626z"/>
		<path style="fill:#CE593F;" d="M135.138,157.715c-0.575-0.107-1.164-0.172-1.77-0.172c-5.306,0-9.621,4.316-9.621,9.62
			c0,0.97,0.147,1.906,0.416,2.789c0.59,0.113,1.195,0.184,1.817,0.184c5.306,0,9.622-4.317,9.622-9.622
			C135.602,159.534,135.411,158.606,135.138,157.715z"/>
		<path style="fill:#CE593F;" d="M117.358,164.7c-0.103-0.212-0.215-0.42-0.303-0.641
			C117.143,164.281,117.254,164.487,117.358,164.7z"/>
		<path style="fill:#CE593F;" d="M116.704,162.93c-0.051-0.196-0.121-0.384-0.16-0.584
			C116.583,162.547,116.653,162.734,116.704,162.93z"/>
		<path style="fill:#CE593F;" d="M118.29,166.235c-0.15-0.2-0.297-0.402-0.431-0.614C117.993,165.834,118.14,166.034,118.29,166.235
			z"/>
	</g>
	<g>
		<path style="fill:#CE593F;" d="M213.724,151.074c0.184,0.035,0.359,0.091,0.538,0.136
			C214.083,151.165,213.909,151.109,213.724,151.074z"/>
		<path style="fill:#CE593F;" d="M216.977,152.355c0.17,0.106,0.343,0.207,0.506,0.323
			C217.319,152.562,217.148,152.462,216.977,152.355z"/>
		<path style="fill:#CE593F;" d="M215.409,151.566c0.195,0.076,0.384,0.16,0.573,0.248
			C215.792,151.726,215.604,151.642,215.409,151.566z"/>
		<path style="fill:#CE593F;" d="M218.788,153.774c-0.101-0.102-0.217-0.187-0.323-0.285
			C218.57,153.586,218.687,153.672,218.788,153.774z"/>
		<path style="fill:#CE593F;" d="M220.686,156.558c0.089,0.195,0.161,0.398,0.237,0.6
			C220.846,156.956,220.775,156.754,220.686,156.558z"/>
		<path style="fill:#CE593F;" d="M219.856,155.067c0.091,0.132,0.161,0.278,0.245,0.414
			C220.016,155.345,219.947,155.2,219.856,155.067z"/>
		<path style="fill:#CE593F;" d="M211.939,150.894L211.939,150.894c-3.316,0-6.245,1.686-7.976,4.245
			C205.694,152.58,208.623,150.894,211.939,150.894z"/>
		<path style="fill:#CE593F;" d="M206.814,168.627c-0.225-0.142-0.435-0.303-0.647-0.463
			C206.38,168.324,206.589,168.484,206.814,168.627z"/>
		<path style="fill:#CE593F;" d="M210.088,169.949c-0.237-0.046-0.458-0.132-0.688-0.196
			C209.63,169.816,209.851,169.902,210.088,169.949z"/>
		<path style="fill:#CE593F;" d="M208.379,169.435c-0.248-0.099-0.479-0.228-0.716-0.347
			C207.901,169.207,208.131,169.336,208.379,169.435z"/>
		<path style="fill:#CE593F;" d="M221.096,157.715c-0.575-0.107-1.164-0.172-1.768-0.172c-5.305,0-9.621,4.316-9.621,9.62
			c0,0.97,0.148,1.906,0.416,2.789c0.59,0.113,1.194,0.184,1.817,0.184c5.305,0,9.621-4.317,9.621-9.622
			C221.56,159.534,221.369,158.606,221.096,157.715z"/>
		<path style="fill:#CE593F;" d="M202.503,162.346c0.039,0.201,0.108,0.388,0.16,0.584
			C202.612,162.734,202.542,162.546,202.503,162.346z"/>
		<path style="fill:#CE593F;" d="M203.014,164.059c0.088,0.221,0.199,0.428,0.303,0.641
			C203.213,164.488,203.102,164.28,203.014,164.059z"/>
		<path style="fill:#CE593F;" d="M204.879,166.999c0.176,0.192,0.356,0.376,0.547,0.553
			C205.235,167.375,205.054,167.19,204.879,166.999z"/>
		<path style="fill:#CE593F;" d="M203.818,165.621c0.134,0.213,0.281,0.413,0.431,0.614
			C204.099,166.035,203.951,165.833,203.818,165.621z"/>
	</g>
	<g>
		<path style="fill:#CE593F;" d="M277.278,151.074c0.183,0.035,0.359,0.091,0.538,0.136
			C277.636,151.165,277.462,151.109,277.278,151.074z"/>
		<path style="fill:#CE593F;" d="M284.239,156.558c0.089,0.195,0.161,0.398,0.236,0.599
			C284.4,156.955,284.328,156.753,284.239,156.558z"/>
		<path style="fill:#CE593F;" d="M275.492,150.894L275.492,150.894c-3.316,0-6.245,1.686-7.976,4.245
			C269.247,152.58,272.176,150.894,275.492,150.894z"/>
		<path style="fill:#CE593F;" d="M278.962,151.566c0.195,0.076,0.384,0.16,0.572,0.248
			C279.346,151.726,279.157,151.642,278.962,151.566z"/>
		<path style="fill:#CE593F;" d="M283.409,155.067c0.091,0.132,0.161,0.278,0.245,0.414
			C283.569,155.345,283.5,155.2,283.409,155.067z"/>
		<path style="fill:#CE593F;" d="M280.53,152.355c0.17,0.106,0.343,0.207,0.506,0.323
			C280.873,152.562,280.701,152.462,280.53,152.355z"/>
		<path style="fill:#CE593F;" d="M282.341,153.774c-0.101-0.102-0.217-0.187-0.323-0.285
			C282.123,153.586,282.24,153.672,282.341,153.774z"/>
		<path style="fill:#CE593F;" d="M267.371,165.621c0.134,0.213,0.281,0.413,0.431,0.614
			C267.652,166.035,267.505,165.833,267.371,165.621z"/>
		<path style="fill:#CE593F;" d="M266.567,164.059c0.088,0.221,0.199,0.428,0.303,0.641
			C266.766,164.488,266.655,164.28,266.567,164.059z"/>
		<path style="fill:#CE593F;" d="M271.933,169.435c-0.248-0.099-0.479-0.228-0.716-0.347
			C271.454,169.207,271.684,169.336,271.933,169.435z"/>
		<path style="fill:#CE593F;" d="M284.649,157.715c-0.574-0.107-1.163-0.172-1.768-0.172c-5.306,0-9.621,4.316-9.621,9.62
			c0,0.97,0.148,1.906,0.416,2.789c0.589,0.113,1.194,0.184,1.816,0.184c5.306,0,9.621-4.317,9.621-9.622
			C285.113,159.534,284.923,158.606,284.649,157.715z"/>
		<path style="fill:#CE593F;" d="M273.641,169.949c-0.237-0.046-0.457-0.132-0.688-0.196
			C273.184,169.816,273.404,169.902,273.641,169.949z"/>
		<path style="fill:#CE593F;" d="M266.057,162.346c0.039,0.201,0.108,0.388,0.16,0.584
			C266.165,162.734,266.095,162.546,266.057,162.346z"/>
		<path style="fill:#CE593F;" d="M270.367,168.627c-0.225-0.142-0.435-0.303-0.646-0.463
			C269.933,168.324,270.142,168.484,270.367,168.627z"/>
		<path style="fill:#CE593F;" d="M268.432,166.999c0.176,0.192,0.356,0.376,0.547,0.553
			C268.789,167.375,268.608,167.19,268.432,166.999z"/>
	</g>
	<path style="fill:#3F2D20;" d="M168.959,70.02c4.584,0,18.534,0,18.534-20.319c0-7.84-3.298-39.515-18.534-39.515
		c-15.235,0-18.533,31.675-18.533,39.515C150.426,70.02,164.375,70.02,168.959,70.02z M168.959,29.604
		c1.802,5.206,3.492,13.201,3.492,20.098c0,3.242-0.456,4.627-0.656,5.076c-0.492,0.65-1.124,1.306-2.836,1.306
		c-1.712,0-2.342-0.656-2.836-1.306c-0.2-0.449-0.656-1.834-0.656-5.076C165.467,42.804,167.158,34.81,168.959,29.604z"/>
	<path style="fill:#3F2D20;" d="M330.398,288.331h-20.384V177.657c0-4.154-3.367-7.521-7.521-7.521h-4.295
		c1.258-2.958,1.956-6.21,1.956-9.622c0-13.599-11.064-24.662-24.663-24.662c-13.599,0-24.662,11.063-24.662,24.662
		c0,3.412,0.697,6.664,1.956,9.622h-18.14c1.258-2.958,1.955-6.21,1.955-9.622c0-13.599-11.064-24.662-24.663-24.662
		c-9.201,0-17.235,5.068-21.473,12.555V79.311c0-4.154-3.367-7.521-7.521-7.521h-27.97c-4.154,0-7.521,3.367-7.521,7.521v69.095
		c-4.238-7.488-12.273-12.554-21.473-12.554c-13.599,0-24.663,11.063-24.663,24.662c0,3.412,0.697,6.664,1.955,9.622H85.135
		c1.258-2.958,1.955-6.21,1.955-9.622c0-13.599-11.064-24.662-24.663-24.662s-24.663,11.063-24.663,24.662
		c0,3.412,0.697,6.664,1.956,9.622h-4.294c-4.154,0-7.521,3.367-7.521,7.521v110.674H7.521c-4.154,0-7.521,3.367-7.521,7.521v24.36
		c0,4.154,3.367,7.521,7.521,7.521h322.877c4.154,0,7.521-3.367,7.521-7.521v-24.36
		C337.919,291.698,334.552,288.331,330.398,288.331z M322.877,312.691H15.042v-9.319h20.385h267.068h20.384V312.691z
		 M62.427,150.894c5.306,0,9.621,4.316,9.621,9.62c0,5.306-4.316,9.622-9.621,9.622s-9.621-4.317-9.621-9.622
		C52.806,155.209,57.121,150.894,62.427,150.894z M125.98,150.894c5.306,0,9.622,4.316,9.622,9.62c0,5.306-4.316,9.622-9.622,9.622
		c-5.305,0-9.621-4.317-9.621-9.622C116.359,155.209,120.675,150.894,125.98,150.894z M162.495,86.832h12.928v83.304h-12.928V86.832
		z M211.938,150.894c5.306,0,9.621,4.316,9.621,9.62c0,5.306-4.316,9.622-9.621,9.622c-5.305,0-9.62-4.317-9.62-9.622
		C202.318,155.209,206.634,150.894,211.938,150.894z M275.492,150.894c5.306,0,9.621,4.316,9.621,9.62
		c0,5.306-4.316,9.622-9.621,9.622c-5.305,0-9.621-4.317-9.621-9.622C265.871,155.209,270.187,150.894,275.492,150.894z
		 M294.973,196.03c-14.481,1.708-22.92,8.224-30.473,14.082c-7.865,6.1-14.659,11.367-28.777,11.367
		c-14.117,0-20.91-5.268-28.776-11.367c-8.777-6.807-18.726-14.522-37.993-14.522c-19.265,0-29.214,7.715-37.991,14.521
		c-7.865,6.1-14.658,11.367-28.775,11.367c-14.117,0-20.908-5.268-28.773-11.367c-7.553-5.858-15.99-12.375-30.47-14.083v-10.852
		h112.028h27.97h112.029V196.03z M42.947,211.212c9.295,1.526,14.93,5.883,21.251,10.786c8.777,6.807,18.725,14.522,37.992,14.522
		c19.266,0,29.214-7.716,37.992-14.522c7.864-6.099,14.657-11.367,28.773-11.367c14.118,0,20.911,5.268,28.777,11.367
		c8.777,6.807,18.726,14.522,37.992,14.522c19.267,0,29.216-7.715,37.993-14.522c6.322-4.903,11.959-9.262,21.256-10.786v77.119
		H42.947V211.212z"/>
</g>
</svg>